<svg xmlns="http://www.w3.org/2000/svg" xmlns:xlink="http://www.w3.org/1999/xlink" width="40" zoomAndPan="magnify" viewBox="0 0 30 30.000001" height="40" preserveAspectRatio="xMidYMid meet" version="1.0"><defs><g/><clipPath id="5205af1c52"><path d="M 0.484375 0 L 29.515625 0 L 29.515625 29.03125 L 0.484375 29.03125 Z M 0.484375 0 " clip-rule="nonzero"/></clipPath><clipPath id="e41aee9069"><path d="M 4.113281 0 L 25.886719 0 C 27.890625 0 29.515625 1.625 29.515625 3.628906 L 29.515625 25.402344 C 29.515625 27.40625 27.890625 29.03125 25.886719 29.03125 L 4.113281 29.03125 C 2.109375 29.03125 0.484375 27.40625 0.484375 25.402344 L 0.484375 3.628906 C 0.484375 1.625 2.109375 0 4.113281 0 Z M 4.113281 0 " clip-rule="nonzero"/></clipPath><clipPath id="bdf6795cc5"><path d="M 0.484375 0 L 29.515625 0 L 29.515625 29.03125 L 0.484375 29.03125 Z M 0.484375 0 " clip-rule="nonzero"/></clipPath><clipPath id="d6bc942715"><path d="M 4.113281 0 L 25.886719 0 C 27.890625 0 29.515625 1.625 29.515625 3.628906 L 29.515625 25.402344 C 29.515625 27.40625 27.890625 29.03125 25.886719 29.03125 L 4.113281 29.03125 C 2.109375 29.03125 0.484375 27.40625 0.484375 25.402344 L 0.484375 3.628906 C 0.484375 1.625 2.109375 0 4.113281 0 Z M 4.113281 0 " clip-rule="nonzero"/></clipPath><clipPath id="3f24cde2c0"><rect x="0" width="30" y="0" height="30"/></clipPath><clipPath id="fedd40c1d6"><rect x="0" width="23" y="0" height="29"/></clipPath></defs><g clip-path="url(#5205af1c52)"><g clip-path="url(#e41aee9069)"><g transform="matrix(1, 0, 0, 1, 0.000000000000000056, 0.000000000000005692)"><g clip-path="url(#3f24cde2c0)"><g clip-path="url(#bdf6795cc5)"><g clip-path="url(#d6bc942715)"><path fill="#ff9000" d="M 0.484375 0 L 29.515625 0 L 29.515625 29.03125 L 0.484375 29.03125 Z M 0.484375 0 " fill-opacity="1" fill-rule="nonzero"/></g></g></g></g></g></g><g transform="matrix(1, 0, 0, 1, 4, 0.000000000000005692)"><g clip-path="url(#fedd40c1d6)"><g fill="#000000" fill-opacity="1"><g transform="translate(0.272415, 20.036255)"><g><path d="M 20.15625 0 L 15.34375 0 L 15.34375 -9.5625 L 11.796875 0 L 9.65625 0 L 6.09375 -9.5625 L 6.09375 0 L 1.28125 0 L 1.28125 -15.890625 L 7.9375 -15.890625 L 10.71875 -8.265625 L 13.515625 -15.890625 L 20.15625 -15.890625 Z M 20.15625 0 "/></g></g></g></g></g></svg>